<svg width="53" height="42" viewBox="0 0 53 42" fill="none" xmlns="http://www.w3.org/2000/svg">
<g clip-path="url(#clip0_23_1036)">
<path d="M29 42V36H32.5C32.9 36 33.25 36.15 33.55 36.45C33.85 36.75 34 37.1 34 37.5V38.5C34 38.9 33.85 39.25 33.55 39.55C33.25 39.85 32.9 40 32.5 40H30.5V42H29ZM35.5 42V36H37V38H39V36H40.5V42H39V39.5H37V42H35.5ZM42.5 42V36H46C46.4 36 46.75 36.15 47.05 36.45C47.35 36.75 47.5 37.1 47.5 37.5V38.5C47.5 38.9 47.35 39.25 47.05 39.55C46.75 39.85 46.4 40 46 40H44V42H42.5ZM30.5 38.5H32.5V37.5H30.5V38.5ZM44 38.5H46V37.5H44V38.5Z" fill="#5F6368"/>
<path d="M30.5 30C30.0833 30 29.7292 29.8542 29.4375 29.5625C29.1458 29.2708 29 28.9167 29 28.5V27.5H30.5V28.5H32V24H33.5V28.5C33.5 28.9167 33.3542 29.2708 33.0625 29.5625C32.7708 29.8542 32.4167 30 32 30H30.5ZM36 30C35.7167 30 35.4792 29.9042 35.2875 29.7125C35.0958 29.5208 35 29.2833 35 29V28H36.5V28.5H38.5V27.5H36C35.7167 27.5 35.4792 27.4042 35.2875 27.2125C35.0958 27.0208 35 26.7833 35 26.5V25C35 24.7167 35.0958 24.4792 35.2875 24.2875C35.4792 24.0958 35.7167 24 36 24H39C39.2833 24 39.5208 24.0958 39.7125 24.2875C39.9042 24.4792 40 24.7167 40 25V26H38.5V25.5H36.5V26.5H39C39.2833 26.5 39.5208 26.5958 39.7125 26.7875C39.9042 26.9792 40 27.2167 40 27.5V29C40 29.2833 39.9042 29.5208 39.7125 29.7125C39.5208 29.9042 39.2833 30 39 30H36Z" fill="#5F6368"/>
<path d="M29 6V0H30.5V2H32.5V0H34V6H32.5V3.5H30.5V6H29ZM36.75 6V1.5H35V0H40V1.5H38.25V6H36.75ZM41 6V1C41 0.716667 41.0958 0.479167 41.2875 0.2875C41.4792 0.0958333 41.7167 0 42 0H46.5C46.7833 0 47.0208 0.0958333 47.2125 0.2875C47.4042 0.479167 47.5 0.716667 47.5 1V6H46V1.5H45V5H43.5V1.5H42.5V6H41ZM49 6V0H50.5V4.5H53V6H49Z" fill="#5F6368"/>
<path d="M36.5 18C36.2167 18 35.9792 17.9042 35.7875 17.7125C35.5958 17.5208 35.5 17.2833 35.5 17V16H37V16.5H39V15.5H36.5C36.2167 15.5 35.9792 15.4042 35.7875 15.2125C35.5958 15.0208 35.5 14.7833 35.5 14.5V13C35.5 12.7167 35.5958 12.4792 35.7875 12.2875C35.9792 12.0958 36.2167 12 36.5 12H39.5C39.7833 12 40.0208 12.0958 40.2125 12.2875C40.4042 12.4792 40.5 12.7167 40.5 13V14H39V13.5H37V14.5H39.5C39.7833 14.5 40.0208 14.5958 40.2125 14.7875C40.4042 14.9792 40.5 15.2167 40.5 15.5V17C40.5 17.2833 40.4042 17.5208 40.2125 17.7125C40.0208 17.9042 39.7833 18 39.5 18H36.5ZM43 18C42.7167 18 42.4792 17.9042 42.2875 17.7125C42.0958 17.5208 42 17.2833 42 17V16H43.5V16.5H45.5V15.5H43C42.7167 15.5 42.4792 15.4042 42.2875 15.2125C42.0958 15.0208 42 14.7833 42 14.5V13C42 12.7167 42.0958 12.4792 42.2875 12.2875C42.4792 12.0958 42.7167 12 43 12H46C46.2833 12 46.5208 12.0958 46.7125 12.2875C46.9042 12.4792 47 12.7167 47 13V14H45.5V13.5H43.5V14.5H46C46.2833 14.5 46.5208 14.5958 46.7125 14.7875C46.9042 14.9792 47 15.2167 47 15.5V17C47 17.2833 46.9042 17.5208 46.7125 17.7125C46.5208 17.9042 46.2833 18 46 18H43ZM30 18C29.7167 18 29.4792 17.9042 29.2875 17.7125C29.0958 17.5208 29 17.2833 29 17V13C29 12.7167 29.0958 12.4792 29.2875 12.2875C29.4792 12.0958 29.7167 12 30 12H33C33.2833 12 33.5208 12.0958 33.7125 12.2875C33.9042 12.4792 34 12.7167 34 13V14H32.5V13.5H30.5V16.5H32.5V16H34V17C34 17.2833 33.9042 17.5208 33.7125 17.7125C33.5208 17.9042 33.2833 18 33 18H30Z" fill="#5F6368"/>
<path d="M6 27L0 21L6 15L7.425 16.425L2.825 21.025L7.4 25.6L6 27ZM14 27L12.575 25.575L17.175 20.975L12.6 16.4L14 15L20 21L14 27Z" fill="#5F6368"/>
</g>
<defs>
<clipPath id="clip0_23_1036">
<rect width="53" height="42" fill="white"/>
</clipPath>
</defs>
</svg>
