<svg width="100" height="55" viewBox="0 0 100 55" fill="none" xmlns="http://www.w3.org/2000/svg">
<rect y="0.417969" width="100" height="54" rx="4" fill="white"/>
<path fill-rule="evenodd" clip-rule="evenodd" d="M42.6078 7.83984L41.5749 9.80181C40.946 9.98541 40.3455 10.2348 39.7814 10.5419L37.6627 9.88252L35.4952 12.0346L36.1619 14.1463C35.8599 14.6969 35.614 15.2823 35.4319 15.8949L33.4688 16.9137L33.4688 19.9572L35.4212 20.9705C35.6057 21.6007 35.8576 22.2025 36.1686 22.7676L35.5106 24.8516L37.6782 27.0038L39.7691 26.353C40.3425 26.6663 40.9536 26.9199 41.594 27.1054L42.6078 29.0311H45.6732L46.6869 27.1054C47.3361 26.9174 47.9552 26.6594 48.5353 26.3401L50.6182 26.9884L52.7858 24.8363L52.1252 22.7441C52.4304 22.1859 52.6778 21.592 52.8597 20.9705L54.8122 19.9572V16.9137L52.849 15.8949C52.6644 15.2736 52.4141 14.6803 52.1062 14.1228L52.7703 12.0193L50.6027 9.86717L48.4759 10.5291C47.9187 10.2279 47.3261 9.98285 46.706 9.80181L45.6732 7.83984H42.6078ZM44.1405 23.1958C46.7884 23.1958 48.935 21.0645 48.935 18.4355C48.935 15.8064 46.7884 13.6751 44.1405 13.6751C41.4925 13.6751 39.3459 15.8064 39.3459 18.4355C39.3459 21.0645 41.4925 23.1958 44.1405 23.1958Z" fill="#FF3737"/>
<path fill-rule="evenodd" clip-rule="evenodd" d="M53.7289 25.7119L52.696 27.6739C52.0671 27.8575 51.4666 28.1069 50.9025 28.414L48.7838 27.7546L46.6163 29.9067L47.283 32.0184C46.981 32.569 46.7351 33.1544 46.553 33.767L44.5898 34.7858L44.5898 37.8293L46.5423 38.8425C46.7268 39.4728 46.9786 40.0746 47.2897 40.6397L46.6317 42.7237L48.7993 44.8758L50.8902 44.225C51.4636 44.5384 52.0747 44.792 52.7151 44.9774L53.7289 46.9031H56.7943L57.808 44.9774C58.4572 44.7895 59.0763 44.5315 59.6564 44.2122L61.7393 44.8605L63.9069 42.7083L63.2463 40.6162C63.5514 40.0579 63.7989 39.4641 63.9808 38.8425L65.9333 37.8293V34.7858L63.9701 33.767C63.7854 33.1457 63.5352 32.5524 63.2272 31.9949L63.8914 29.8914L61.7238 27.7392L59.597 28.4012C59.0398 28.0999 58.4472 27.8549 57.8271 27.6739L56.7943 25.7119H53.7289ZM55.2616 41.0679C57.9095 41.0679 60.0561 38.9366 60.0561 36.3075C60.0561 33.6785 57.9095 31.5472 55.2616 31.5472C52.6136 31.5472 50.467 33.6785 50.467 36.3075C50.467 38.9366 52.6136 41.0679 55.2616 41.0679Z" fill="#FF3737"/>
<path d="M75.4725 21.9254L74.5407 19.3437L82.4931 13.2122H87.1735L75.4725 21.9254ZM72.5039 24.6361V8.71582H75.7542V24.6361H72.5039ZM82.8831 24.6361L77.2276 18.1389L79.5462 16.2457L87.0001 24.6361H82.8831Z" fill="black"/>
<path d="M58.1562 24.6361V13.2122H61.4499L61.6015 17.4935L60.5181 17.515C60.7492 16.6688 61.1393 15.9087 61.6882 15.2346C62.2371 14.5461 62.8872 14.0011 63.6384 13.5995C64.3895 13.1836 65.1768 12.9756 66.0002 12.9756C66.5347 12.9756 67.0548 13.033 67.5604 13.1477C68.0804 13.2624 68.5066 13.4202 68.8388 13.621L67.9071 17.2999C67.6037 17.0848 67.1848 16.9198 66.6503 16.8051C66.1303 16.676 65.6174 16.6114 65.1118 16.6114C64.5485 16.6114 64.0429 16.6975 63.595 16.8696C63.1617 17.0417 62.7933 17.2712 62.4899 17.5581C62.201 17.8449 61.9843 18.1604 61.8399 18.5047C61.6954 18.8489 61.6232 19.2003 61.6232 19.5589V24.6361H58.1562Z" fill="black"/>
<path d="M16.0112 24.6363L11.6992 13.2124H15.4045L17.8747 20.9359L17.4197 20.8929L20.3883 14.6538H22.8585L26.0221 20.8929L25.6104 20.9359L28.1456 13.2124H31.8509L27.3655 24.6363H24.657L20.9517 16.6331L22.5335 16.5256L18.6981 24.6363H16.0112Z" fill="black"/>
<path d="M72.5034 44.4293L68.1914 33.0054H71.8967L74.3669 40.7289L73.9119 40.6858L76.8805 34.4468H79.3507L82.5143 40.6858L82.1026 40.7289L84.6378 33.0054H88.3431L83.8577 44.4293H81.1491L77.4438 36.4261L79.0256 36.3185L75.1903 44.4293H72.5034Z" fill="black"/>
<path d="M14.9922 44.4287V33.349C14.9922 32.3594 15.2089 31.4988 15.6423 30.7673C16.0757 30.0359 16.6824 29.4693 17.4624 29.0677C18.2425 28.6661 19.1526 28.4653 20.1927 28.4653C21.0594 28.4653 21.7889 28.5657 22.3812 28.7665C22.9879 28.9673 23.4646 29.1681 23.8113 29.3689L22.8362 31.9291C22.5907 31.8 22.2584 31.6637 21.8395 31.5203C21.435 31.3625 21.0233 31.2837 20.6044 31.2837C20.0699 31.2837 19.6293 31.3769 19.2826 31.5633C18.9359 31.7498 18.6759 32.0008 18.5025 32.3163C18.3436 32.6175 18.2642 32.9617 18.2642 33.349V44.4287H16.639C16.3212 44.4287 16.0251 44.4287 15.7506 44.4287C15.4762 44.4287 15.2234 44.4287 14.9922 44.4287ZM12.457 36.3825V33.5426H23.0096V36.3825H12.457ZM30.0302 44.4287V28.5084H33.4971V44.4287H30.0302Z" fill="black"/>
</svg>
