<svg width="100" height="38" viewBox="0 0 100 38" fill="none" xmlns="http://www.w3.org/2000/svg">
<g clip-path="url(#clip0_28_2)">
<rect width="100" height="38" rx="4" fill="white"/>
<path fill-rule="evenodd" clip-rule="evenodd" d="M42.9085 8L41.8757 9.96197C41.2468 10.1456 40.6463 10.395 40.0822 10.7021L37.9635 10.0427L35.796 12.1948L36.4627 14.3064C36.1606 14.8571 35.9148 15.4425 35.7327 16.0551L33.7695 17.0738L33.7695 20.1174L35.722 21.1306C35.9064 21.7609 36.1583 22.3627 36.4694 22.9278L35.8114 25.0118L37.979 27.1639L40.0699 26.5131C40.6432 26.8265 41.2544 27.0801 41.8948 27.2655L42.9085 29.1912H45.974L46.9877 27.2655C47.6369 27.0776 48.2559 26.8195 48.8361 26.5003L50.919 27.1486L53.0866 24.9964L52.426 22.9043C52.7311 22.346 52.9786 21.7522 53.1605 21.1306L55.113 20.1174V17.0738L53.1498 16.0551C52.9651 15.4338 52.7149 14.8405 52.4069 14.283L53.0711 12.1794L50.9035 10.0273L48.7767 10.6893C48.2195 10.388 47.6269 10.143 47.0068 9.96197L45.974 8H42.9085ZM44.4413 23.356C47.0892 23.356 49.2358 21.2247 49.2358 18.5956C49.2358 15.9665 47.0892 13.8353 44.4413 13.8353C41.7933 13.8353 39.6467 15.9665 39.6467 18.5956C39.6467 21.2247 41.7933 23.356 44.4413 23.356Z" fill="#FF3737"/>
<path d="M75.7733 23.0855L74.8415 20.5039L82.7939 14.3724H87.4742L75.7733 23.0855ZM72.8047 25.7963V9.87598H76.055V25.7963H72.8047ZM83.1839 25.7963L77.5284 19.2991L79.8469 17.4059L87.3009 25.7963H83.1839Z" fill="black"/>
<path d="M58.457 25.7963V14.3724H61.7506L61.9023 18.6537L60.8189 18.6752C61.05 17.829 61.4401 17.0688 61.989 16.3947C62.5379 15.7063 63.188 15.1612 63.9392 14.7596C64.6903 14.3437 65.4776 14.1357 66.301 14.1357C66.8355 14.1357 67.3555 14.1931 67.8611 14.3079C68.3812 14.4226 68.8073 14.5804 69.1396 14.7812L68.2078 18.46C67.9045 18.2449 67.4856 18.08 66.9511 17.9652C66.431 17.8361 65.9182 17.7716 65.4126 17.7716C64.8492 17.7716 64.3436 17.8577 63.8958 18.0298C63.4624 18.2019 63.0941 18.4314 62.7907 18.7182C62.5018 19.0051 62.2851 19.3206 62.1407 19.6648C61.9962 20.0091 61.924 20.3604 61.924 20.719V25.7963H58.457Z" fill="black"/>
<path d="M16.312 25.7965L12 14.3726H15.7053L18.1755 22.0961L17.7205 22.053L20.6891 15.814H23.1593L26.3229 22.053L25.9112 22.0961L28.4464 14.3726H32.1517L27.6663 25.7965H24.9577L21.2524 17.7933L22.8342 17.6857L18.9989 25.7965H16.312Z" fill="black"/>
</g>
<defs>
<clipPath id="clip0_28_2">
<rect width="100" height="38" fill="white"/>
</clipPath>
</defs>
</svg>
